<svg width="683" height="683" viewBox="0 0 683 683" fill="none" xmlns="http://www.w3.org/2000/svg">
<g clip-path="url(#clip0_4_2505)">
<path d="M341.335 682.67C529.849 682.67 682.67 529.849 682.67 341.335C682.67 152.821 529.849 0 341.335 0C152.821 0 0 152.821 0 341.335C0 529.849 152.821 682.67 341.335 682.67Z" fill="#E59D30"/>
<path d="M422.926 318.114L285.208 180.396L115.665 349.94L163.225 397.499L126.503 434.221L373.439 681.157C546.895 664.972 682.67 519.021 682.67 341.335C682.67 330.196 682.118 319.187 681.075 308.321L556.897 184.144L422.926 318.114Z" fill="#BB7712"/>
<path d="M341.335 223.114L227.504 286.843V368.134L216.308 413.481L242.508 460.315L260.849 536.625L306.705 556.265L341.335 565.917L361.3 412.039L341.335 223.114Z" fill="#E9EDF5"/>
<path d="M341.335 223.114L455.166 286.843V368.134L466.362 413.481L440.162 460.315L421.821 536.625L375.964 556.265L341.335 565.917V223.114Z" fill="#CDD2E1"/>
<path d="M341.335 223.114H260.849L227.504 286.843L306.706 369.744V556.265L341.335 571.096L361.301 366.842L341.335 223.114Z" fill="white"/>
<path d="M341.335 223.114H421.821L455.166 286.843L375.964 369.744V556.265L341.335 571.096V223.114Z" fill="#E9EDF5"/>
<path d="M227.504 286.843C238.108 284.988 259.888 279.687 280.991 262.497C298.32 248.381 307.572 232.457 312.104 223.114C308.057 211.976 296.461 184.895 268.217 166.701C232.292 143.557 190.453 148.33 165.542 157.858C97.7763 183.778 60.1428 281.273 82.6816 360.752C106.207 443.714 186.845 477.253 198.621 481.932C176.229 434.878 166.885 394.015 162.594 365.338C157.786 333.2 152.527 295.055 172.419 280.676C179.183 275.787 191.645 271.629 204.844 274.289C216.777 276.695 224.436 283.689 227.504 286.843Z" fill="#AD6D68"/>
<path d="M455.166 286.843C444.562 284.988 422.782 279.687 401.679 262.497C384.35 248.381 375.098 232.457 370.566 223.114C374.613 211.976 386.209 184.895 414.453 166.701C450.378 143.557 492.217 148.33 517.128 157.858C584.894 183.778 622.527 281.273 599.988 360.752C576.463 443.714 495.825 477.253 484.049 481.932C506.441 434.878 515.785 394.015 520.076 365.338C524.884 333.2 530.143 295.055 510.251 280.676C503.487 275.787 491.025 271.629 477.826 274.289C465.893 276.695 458.234 283.689 455.166 286.843Z" fill="#99584D"/>
<path d="M151.02 274.069L227.503 350.552C244.5 332.148 242.055 301.291 222.501 280.912C202.29 259.848 170.064 256.502 151.02 274.069Z" fill="#E9EDF5"/>
<path d="M151.02 274.069C147.6 319.731 181.841 353.972 227.503 350.552C230.923 304.891 196.681 270.649 151.02 274.069Z" fill="#FFAA00"/>
<path d="M531.651 274.069L455.168 350.552C438.17 332.148 440.616 301.291 460.169 280.912C480.38 259.848 512.607 256.502 531.651 274.069Z" fill="#CDD2E1"/>
<path d="M531.651 274.069C535.071 319.731 500.829 353.972 455.168 350.552C451.748 304.891 485.989 270.649 531.651 274.069Z" fill="#FF9500"/>
<path d="M317.427 483.07L341.335 519.616L349.276 495.369L341.335 483.07H317.427Z" fill="#555A65"/>
<path d="M365.243 483.07L341.335 519.616V483.07H365.243Z" fill="#333940"/>
<path d="M270.5 398.683C281.546 398.683 290.5 389.729 290.5 378.683C290.5 367.637 281.546 358.683 270.5 358.683C259.454 358.683 250.5 367.637 250.5 378.683C250.5 389.729 259.454 398.683 270.5 398.683Z" fill="#555A65"/>
<path d="M412.17 398.683C423.216 398.683 432.17 389.729 432.17 378.683C432.17 367.637 423.216 358.683 412.17 358.683C401.124 358.683 392.17 367.637 392.17 378.683C392.17 389.729 401.124 398.683 412.17 398.683Z" fill="#333940"/>
</g>
<defs>
<clipPath id="clip0_4_2505">
<rect width="682.67" height="682.67" fill="white"/>
</clipPath>
</defs>
</svg>
