<svg width="683" height="683" viewBox="0 0 683 683" fill="none" xmlns="http://www.w3.org/2000/svg">
<path d="M341.335 682.669C529.849 682.669 682.669 529.849 682.669 341.335C682.669 152.821 529.849 0 341.335 0C152.821 0 0 152.821 0 341.335C0 529.849 152.821 682.669 341.335 682.669Z" fill="#FBC370"/>
<path d="M390.546 679.132C555.743 655.277 682.677 513.143 682.677 341.341C682.677 337.46 682.589 333.601 682.459 329.751L470.809 118.102L433.781 189.781L392.437 148.437L280.787 569.374L390.546 679.132Z" fill="#E3A344"/>
<path d="M470.799 198.335C492.955 176.179 492.955 140.258 470.799 118.102L384.835 204.066L424.951 244.182L470.799 198.335Z" fill="#864B17"/>
<path d="M211.868 198.335C189.712 176.179 189.712 140.258 211.868 118.102L297.832 204.066L257.716 244.182L211.868 198.335Z" fill="#A25C1E"/>
<path d="M263.983 480.946L341.32 508.818L401.155 313.853L341.32 176.947H320.742C279.396 176.947 243.149 204.577 232.193 244.445L213.156 326.961L263.983 480.946Z" fill="#CA7428"/>
<path d="M341.323 508.813L418.662 480.941L469.489 326.955L450.452 244.439C439.496 204.572 403.249 176.941 361.903 176.941H341.323V508.813Z" fill="#A25C1E"/>
<path d="M287.923 346.766C287.923 356.61 279.943 364.59 270.099 364.59C260.255 364.59 252.275 356.61 252.275 346.766C252.275 336.922 260.255 328.942 270.099 328.942C279.943 328.942 287.923 336.922 287.923 346.766Z" fill="#585858"/>
<path d="M430.388 346.766C430.388 356.61 422.408 364.59 412.564 364.59C402.72 364.59 394.74 356.61 394.74 346.766C394.74 336.922 402.72 328.942 412.564 328.942C422.408 328.942 430.388 336.922 430.388 346.766Z" fill="#3B3B3B"/>
<path d="M297.823 204.065L316.535 305.914C323.666 344.727 323.868 384.497 317.132 423.381L307.16 480.945L341.326 497.601V191.221L297.823 204.065Z" fill="#F1EDEB"/>
<path d="M384.838 204.065L366.126 305.914C358.995 344.727 358.792 384.497 365.528 423.381L375.5 480.945L341.335 497.601V191.221L384.838 204.065Z" fill="#E1D9D5"/>
<path d="M264.001 480.943V529.156C264.001 560.395 289.326 585.719 320.564 585.719H341.339L380.009 533.331L341.339 480.943H264.001Z" fill="#A25C1E"/>
<path d="M418.673 480.937V529.15C418.673 560.389 393.349 585.713 362.11 585.713H341.335V480.937H418.673Z" fill="#864B17"/>
<path d="M293.823 503.389H314.626V536.795H293.823V503.389Z" fill="#585858"/>
<path d="M368.049 503.389H388.852V536.795H368.049V503.389Z" fill="#3B3B3B"/>
<path d="M341.33 126.828C301.989 126.828 270.097 158.72 270.097 198.062C270.097 247.514 305.713 273.405 341.33 286.933L376.946 214.227L341.33 126.828Z" fill="#585858"/>
<path d="M412.569 301.623C412.569 301.623 412.569 237.402 412.569 198.062C412.569 158.721 380.676 126.828 341.335 126.828V286.931C376.952 300.458 412.569 301.623 412.569 301.623Z" fill="#3B3B3B"/>
</svg>
