<svg width="683" height="683" viewBox="0 0 683 683" fill="none" xmlns="http://www.w3.org/2000/svg">
<g clip-path="url(#clip0_25_2)">
<path d="M341.335 682.67C529.849 682.67 682.67 529.849 682.67 341.335C682.67 152.821 529.849 0 341.335 0C152.821 0 0 152.821 0 341.335C0 529.849 152.821 682.67 341.335 682.67Z" fill="#929292"/>
<path d="M520.783 294.369C513.876 287.151 506.731 279.713 504.038 273.173C501.546 267.182 501.4 257.252 501.253 247.634C500.978 229.754 500.685 209.491 486.597 195.403C472.509 181.315 452.246 181.022 434.366 180.747C424.748 180.6 414.818 180.454 408.827 177.962C402.305 175.269 394.849 168.124 387.631 161.217C374.99 149.071 360.626 135.312 341.5 135.312C322.374 135.312 308.029 149.071 295.369 161.217C288.151 168.124 280.713 175.269 274.173 177.962C268.219 180.454 258.252 180.6 248.634 180.747C230.754 181.022 210.491 181.315 196.403 195.403C182.315 209.491 182.113 229.754 181.747 247.634C181.6 257.252 181.454 267.182 178.962 273.173C176.269 279.695 169.124 287.151 162.217 294.369C150.071 307.01 136.312 321.374 136.312 340.5C136.312 359.626 150.071 373.971 162.217 386.631C169.124 393.849 176.269 401.287 178.962 407.827C181.454 413.818 181.6 423.748 181.747 433.366C182.022 451.246 182.315 471.509 196.403 485.597C210.491 499.685 230.754 499.978 248.634 500.253C258.252 500.4 268.182 500.546 274.173 503.038C280.695 505.731 288.151 512.876 295.369 519.783C308.01 531.929 322.374 545.688 341.5 545.688C360.626 545.688 374.971 531.929 387.631 519.783C394.849 512.876 402.287 505.731 408.827 503.038C414.818 500.546 424.748 500.4 434.366 500.253C452.246 499.978 472.509 499.685 486.597 485.597C500.685 471.509 500.978 451.246 501.253 433.366C501.4 423.748 501.546 413.818 504.038 407.827C506.731 401.305 513.876 393.849 520.783 386.631C532.929 373.99 546.688 359.626 546.688 340.5C546.688 321.374 532.929 307.029 520.783 294.369ZM499.623 366.35C490.847 375.51 481.76 384.982 476.942 396.615C472.325 407.791 472.124 420.56 471.941 432.926C471.757 445.75 471.556 459.179 465.858 464.858C460.161 470.538 446.823 470.757 433.926 470.941C421.56 471.124 408.791 471.325 397.615 475.942C385.982 480.76 376.51 489.847 367.35 498.623C358.19 507.398 348.828 516.375 341.5 516.375C334.172 516.375 324.737 507.361 315.65 498.623C306.563 489.884 297.018 480.76 285.385 475.942C274.209 471.325 261.44 471.124 249.074 470.941C236.25 470.757 222.821 470.556 217.142 464.858C211.462 459.161 211.243 445.823 211.059 432.926C210.876 420.56 210.675 407.791 206.058 396.615C201.24 384.982 192.153 375.51 183.377 366.35C174.602 357.19 165.625 347.828 165.625 340.5C165.625 333.172 174.639 323.737 183.377 314.65C192.116 305.563 201.24 296.018 206.058 284.385C210.675 273.209 210.876 260.44 211.059 248.074C211.243 235.25 211.444 221.821 217.142 216.142C222.839 210.462 236.177 210.243 249.074 210.059C261.44 209.876 274.209 209.675 285.385 205.058C297.018 200.24 306.49 191.153 315.65 182.377C324.81 173.602 334.172 164.625 341.5 164.625C348.828 164.625 358.263 173.639 367.35 182.377C376.437 191.116 385.982 200.24 397.615 205.058C408.791 209.675 421.56 209.876 433.926 210.059C446.75 210.243 460.179 210.444 465.858 216.142C471.538 221.839 471.757 235.177 471.941 248.074C472.124 260.44 472.325 273.209 476.942 284.385C481.76 296.018 490.847 305.49 499.623 314.65C508.398 323.81 517.375 333.172 517.375 340.5C517.375 347.828 508.361 357.263 499.623 366.35ZM363.484 435.766C363.484 440.114 362.195 444.364 359.779 447.979C357.364 451.595 353.93 454.413 349.913 456.077C345.896 457.74 341.476 458.176 337.211 457.328C332.947 456.479 329.029 454.385 325.955 451.311C322.88 448.236 320.786 444.319 319.938 440.055C319.09 435.79 319.525 431.37 321.189 427.353C322.853 423.335 325.671 419.902 329.286 417.486C332.901 415.071 337.152 413.781 341.5 413.781C347.331 413.781 352.922 416.097 357.045 420.22C361.168 424.343 363.484 429.935 363.484 435.766ZM414.781 303.859C414.781 335.7 389.572 362.356 356.156 368.493V369.812C356.156 373.7 354.612 377.427 351.864 380.176C349.115 382.925 345.387 384.469 341.5 384.469C337.613 384.469 333.885 382.925 331.136 380.176C328.388 377.427 326.844 373.7 326.844 369.812V355.156C326.844 351.269 328.388 347.541 331.136 344.793C333.885 342.044 337.613 340.5 341.5 340.5C365.738 340.5 385.469 324.012 385.469 303.859C385.469 283.707 365.738 267.219 341.5 267.219C317.262 267.219 297.531 283.707 297.531 303.859V311.188C297.531 315.075 295.987 318.802 293.239 321.551C290.49 324.3 286.762 325.844 282.875 325.844C278.988 325.844 275.26 324.3 272.511 321.551C269.763 318.802 268.219 315.075 268.219 311.188V303.859C268.219 267.494 301.085 237.906 341.5 237.906C381.915 237.906 414.781 267.494 414.781 303.859Z" fill="white"/>
</g>
<defs>
<clipPath id="clip0_25_2">
<rect width="682.67" height="682.67" fill="white"/>
</clipPath>
</defs>
</svg>
