<svg width="683" height="683" viewBox="0 0 683 683" fill="none" xmlns="http://www.w3.org/2000/svg">
<g clip-path="url(#clip0_3_2209)">
<path d="M341.335 682.67C529.849 682.67 682.67 529.849 682.67 341.335C682.67 152.821 529.849 0 341.335 0C152.821 0 0 152.821 0 341.335C0 529.849 152.821 682.67 341.335 682.67Z" fill="#07CB9C"/>
<path d="M682.67 341.335C682.67 330.063 682.109 318.923 681.041 307.931L497.771 124.661L195.961 329.11L14.9976 372.151L327.22 682.357C331.904 682.547 336.604 682.67 341.335 682.67C529.849 682.67 682.67 529.849 682.67 341.335Z" fill="#07A680"/>
<path d="M183.917 261.244L14.9976 372.151C14.9976 372.151 104.043 458.76 193.089 380.197L183.917 261.244Z" fill="#FFBB7D"/>
<path d="M500.392 261.244L669.311 372.151C669.311 372.151 580.265 458.76 491.22 380.197L500.392 261.244Z" fill="#DD8740"/>
<path d="M342.154 174.401C222.037 174.401 117.205 280.544 177.484 423.379C237.763 566.215 311.574 585.87 342.154 585.87C372.735 585.87 446.545 566.213 506.824 423.379C567.103 280.545 462.27 174.401 342.154 174.401Z" fill="#FFD4A6"/>
<path d="M506.829 423.375C446.549 566.216 372.735 585.87 342.148 585.87V174.401C422.082 174.401 495.243 221.401 517.483 294.935C528.683 331.908 527.003 375.589 506.829 423.375Z" fill="#FFBB7D"/>
<path d="M509.304 169.506C509.755 166.573 509.989 163.567 509.989 160.509C509.989 128.064 483.688 101.763 451.244 101.763C436.981 101.763 423.909 106.85 413.733 115.302C395.089 97.5883 369.901 86.6963 342.153 86.6963C314.405 86.6963 289.216 97.587 270.572 115.302C260.396 106.848 247.324 101.763 233.061 101.763C200.617 101.763 174.316 128.064 174.316 160.509C174.316 163.569 174.551 166.573 175.001 169.506C148.181 178.627 128.877 204.008 128.877 233.913C128.877 271.487 159.337 301.947 196.911 301.947C226.763 301.947 252.107 282.711 261.27 255.964C280.33 279.541 309.471 294.632 342.151 294.632C374.831 294.632 403.973 279.541 423.033 255.964C432.196 282.711 457.54 301.947 487.392 301.947C524.967 301.947 555.426 271.487 555.426 233.913C555.428 204.008 536.124 178.627 509.304 169.506Z" fill="white"/>
<path d="M555.43 233.908C555.43 260.681 539.963 283.841 517.483 294.935C508.416 299.428 498.189 301.948 487.389 301.948C457.536 301.948 432.202 282.708 423.042 255.961C403.975 279.548 374.829 294.628 342.148 294.628V86.6938C369.909 86.6938 395.095 97.5872 413.735 115.307C423.909 106.854 436.989 101.761 451.242 101.761C483.696 101.761 509.989 128.067 509.989 160.508C509.989 163.574 509.749 166.574 509.309 169.508C536.123 178.628 555.43 204.001 555.43 233.908Z" fill="#E2E2E2"/>
<path d="M296.83 384.788C299.425 368.779 288.551 353.696 272.541 351.101C256.532 348.506 241.45 359.38 238.854 375.39C236.259 391.399 247.134 406.481 263.143 409.077C279.152 411.672 294.235 400.797 296.83 384.788Z" fill="#444444"/>
<path d="M445.264 384.801C447.86 368.791 436.985 353.709 420.976 351.114C404.966 348.519 389.884 359.393 387.289 375.402C384.694 391.412 395.568 406.494 411.578 409.089C427.587 411.685 442.669 400.81 445.264 384.801Z" fill="#212121"/>
<path d="M383.048 494.784C384.857 480.329 367.374 472.41 342.154 472.41C316.935 472.41 299.452 480.329 301.262 494.784C317.038 497.262 329.106 510.912 329.106 527.384C329.106 527.486 329.099 527.586 329.098 527.688C337.339 531.686 346.971 531.686 355.213 527.688C355.211 527.586 355.205 527.485 355.205 527.384C355.203 510.913 367.271 497.262 383.048 494.784Z" fill="#DD8740"/>
<path d="M383.042 494.789C367.269 497.269 355.202 510.909 355.202 527.389C355.202 527.482 355.215 527.589 355.215 527.696C351.095 529.696 346.615 530.682 342.148 530.682V472.416C367.375 472.416 384.855 480.336 383.042 494.789Z" fill="#BC6422"/>
</g>
<defs>
<clipPath id="clip0_3_2209">
<rect width="682.67" height="682.67" fill="white"/>
</clipPath>
</defs>
</svg>
