<svg width="683" height="683" viewBox="0 0 683 683" fill="none" xmlns="http://www.w3.org/2000/svg">
<g clip-path="url(#clip0_2_1232)">
<path d="M341.335 682.67C529.849 682.67 682.67 529.849 682.67 341.335C682.67 152.821 529.849 0 341.335 0C152.821 0 0 152.821 0 341.335C0 529.849 152.821 682.67 341.335 682.67Z" fill="#07CB9C"/>
<path d="M682.67 341.335C682.67 323.922 681.366 306.812 678.85 290.099L475.103 86.3525L458.373 337.158L207.566 86.3525L216.889 294.224L137.055 318.278L306.532 487.754L214.529 576.184L320.383 682.038C327.313 682.457 334.3 682.67 341.335 682.67C529.849 682.67 682.67 529.849 682.67 341.335Z" fill="#07A680"/>
<path d="M275.236 197.245C275.236 197.245 213.466 172.118 207.568 86.3525C207.568 86.3525 138.157 191.345 220.35 254.275C302.544 317.204 275.236 197.245 275.236 197.245Z" fill="#555A66"/>
<path d="M220.946 272.531C220.946 272.531 173.749 212.044 101.477 216.469C101.477 216.469 86.7271 329.055 209.146 353.146L220.946 272.531Z" fill="#FFB89C"/>
<path d="M407.434 197.245C407.434 197.245 469.204 172.118 475.102 86.3525C475.102 86.3525 544.513 191.345 462.32 254.275C380.126 317.204 407.434 197.245 407.434 197.245Z" fill="#333940"/>
<path d="M461.724 272.531C461.724 272.531 508.921 212.044 581.194 216.469C581.194 216.469 595.943 329.055 473.524 353.146L461.724 272.531Z" fill="#FF936B"/>
<path d="M357.754 165.338H314.898C239.619 165.338 181.478 231.492 191.144 306.148L215.689 495.722H466.978L481.997 379.723L357.754 165.338Z" fill="white"/>
<path d="M357.754 165.338H341.335V495.722H466.98L481.998 379.725L473.446 307.427L357.754 165.338Z" fill="#E9EDF5"/>
<path d="M420.265 596.318H262.405C225.386 596.318 195.377 566.308 195.377 529.289V511.62C195.377 474.601 225.386 444.592 262.405 444.592H420.265C457.284 444.592 487.293 474.601 487.293 511.62V529.289C487.293 566.308 457.284 596.318 420.265 596.318Z" fill="#FFB89C"/>
<path d="M420.265 444.592H341.335V596.318H420.265C457.284 596.318 487.293 566.308 487.293 529.289V511.62C487.293 474.601 457.284 444.592 420.265 444.592Z" fill="#FF936B"/>
<path d="M279.588 551.141C293.805 551.141 305.331 539.616 305.331 525.399C305.331 511.181 293.805 499.656 279.588 499.656C265.371 499.656 253.845 511.181 253.845 525.399C253.845 539.616 265.371 551.141 279.588 551.141Z" fill="#555A66"/>
<path d="M403.082 551.141C417.3 551.141 428.825 539.616 428.825 525.399C428.825 511.181 417.3 499.656 403.082 499.656C388.865 499.656 377.339 511.181 377.339 525.399C377.339 539.616 388.865 551.141 403.082 551.141Z" fill="#333940"/>
<path d="M274.357 378.219C288.205 378.219 299.431 366.993 299.431 353.146C299.431 339.298 288.205 328.072 274.357 328.072C260.509 328.072 249.284 339.298 249.284 353.146C249.284 366.993 260.509 378.219 274.357 378.219Z" fill="#555A66"/>
<path d="M408.313 378.219C422.16 378.219 433.386 366.993 433.386 353.146C433.386 339.298 422.16 328.072 408.313 328.072C394.465 328.072 383.239 339.298 383.239 353.146C383.239 366.993 394.465 378.219 408.313 378.219Z" fill="#333940"/>
<path d="M367.771 165.338H347.767C359.486 175.689 372.291 191.272 377.341 212.536C387.614 255.8 387.439 297.099 428.825 299.065C453.612 300.243 471.576 344.451 482 379.725L491.526 306.148C501.192 231.492 443.052 165.338 367.771 165.338Z" fill="#555A66"/>
</g>
<defs>
<clipPath id="clip0_2_1232">
<rect width="682.67" height="682.67" fill="white"/>
</clipPath>
</defs>
</svg>
