<svg width="683" height="683" viewBox="0 0 683 683" fill="none" xmlns="http://www.w3.org/2000/svg">
<g clip-path="url(#clip0_2_251)">
<path d="M538.321 620.126C625.658 558.305 682.67 456.478 682.67 341.335C682.67 152.821 529.849 0 341.335 0C152.821 0 0 152.821 0 341.335C0 456.478 57.0123 558.305 144.349 620.126H538.321Z" fill="#F5D11D"/>
<path d="M682.67 341.335C682.67 311.064 678.73 281.715 671.334 253.769L497.565 80.0004L461.102 383.931C461.064 385.125 462.021 386.114 463.216 386.114C464.224 386.114 465.092 386.826 465.289 387.815L538.321 620.127C625.656 558.305 682.67 456.478 682.67 341.335Z" fill="#D3B20D"/>
<path d="M221.689 595.618C221.689 529.539 275.256 475.972 341.335 475.972C407.414 475.972 460.981 529.539 460.981 595.618V661.098C488.836 650.67 514.97 636.719 538.828 619.767L491.618 383.217H191.052L143.842 619.767C167.698 636.719 193.833 650.67 221.689 661.098V595.618Z" fill="#DCE1EB"/>
<path d="M460.981 595.618V661.098C488.836 650.67 514.97 636.719 538.828 619.767L491.618 383.217H341.335V475.97C407.414 475.97 460.981 529.539 460.981 595.618Z" fill="#BEC3D2"/>
<path d="M341.335 474.637C275.256 474.637 221.689 528.204 221.689 594.283V661.111C258.921 675.049 299.239 682.67 341.335 682.67C383.431 682.67 423.749 675.049 460.981 661.113V594.284C460.981 528.205 407.414 474.637 341.335 474.637Z" fill="#F2F6FC"/>
<path d="M341.335 474.637V682.67C383.432 682.67 423.749 675.049 460.981 661.113V594.284C460.981 528.205 407.414 474.637 341.335 474.637Z" fill="#DCE1EB"/>
<path d="M510.804 227.901L497.565 80.0004L419.613 139.605C395.721 127.785 369.226 120.834 341.335 120.834C313.444 120.834 286.949 127.785 263.059 139.605L185.105 80.0004L171.866 227.901C158.029 253.313 150.203 280.636 150.203 306.753C150.203 393.121 235.776 424.907 341.335 424.907C446.894 424.907 532.467 393.119 532.467 306.753C532.467 280.636 524.64 253.312 510.804 227.901Z" fill="white"/>
<path d="M510.804 227.901L497.565 80.0004L419.613 139.605C395.721 127.785 369.226 120.834 341.335 120.834V424.907C446.894 424.907 532.467 393.119 532.467 306.753C532.467 280.636 524.641 253.312 510.804 227.901Z" fill="#E9EDF5"/>
<path d="M333.387 121.023C308.409 122.206 284.668 128.914 263.059 139.606L185.105 80.0004L171.866 227.901C158.029 253.313 150.203 280.636 150.203 306.753C150.203 311.117 150.422 315.343 150.851 319.432C164.265 323.356 178.454 325.463 193.136 325.463C276.144 325.463 337.628 259.251 337.628 176.242C337.627 157.154 337.328 138.174 333.387 121.023Z" fill="#DCE1EB"/>
<path d="M264.516 272.363C266.55 259.813 258.026 247.991 245.476 245.956C232.926 243.922 221.103 252.446 219.069 264.996C217.034 277.546 225.559 289.369 238.108 291.403C250.658 293.438 262.481 284.913 264.516 272.363Z" fill="#555A66"/>
<path d="M463.43 272.38C465.464 259.83 456.94 248.008 444.39 245.973C431.84 243.939 420.017 252.463 417.983 265.013C415.948 277.563 424.473 289.386 437.023 291.42C449.572 293.455 461.395 284.93 463.43 272.38Z" fill="#333940"/>
<path d="M376.507 303.515C376.507 287.844 360.76 286.579 341.335 286.579C321.91 286.579 306.163 287.844 306.163 303.515C306.163 313.19 312.17 321.73 321.335 326.851V359.978H361.335V326.851C370.5 321.73 376.507 313.19 376.507 303.515Z" fill="#414952"/>
<path d="M376.507 303.515C376.507 287.844 360.76 286.579 341.335 286.579V359.978H361.335V326.851C370.5 321.73 376.507 313.19 376.507 303.515Z" fill="#23272B"/>
</g>
<defs>
<clipPath id="clip0_2_251">
<rect width="682.67" height="682.67" fill="white"/>
</clipPath>
</defs>
</svg>
