<svg width="683" height="683" viewBox="0 0 683 683" fill="none" xmlns="http://www.w3.org/2000/svg">
<g clip-path="url(#clip0_2_926)">
<path d="M682.667 341.333C682.667 529.849 529.849 682.667 341.333 682.667C152.818 682.667 0 529.849 0 341.333C0 152.818 152.818 0 341.333 0C529.849 0 682.667 152.818 682.667 341.333Z" fill="#FF9D65"/>
<path d="M682.667 341.333C682.667 314.682 679.609 288.745 673.828 263.854L559.427 149.453L177.188 522.255L337.547 682.62C338.813 682.63 340.068 682.667 341.333 682.667C529.849 682.667 682.667 529.849 682.667 341.333Z" fill="#EC7837"/>
<path d="M559.427 149.453L440.266 190.724C410.636 175.396 376.995 166.734 341.334 166.734C305.672 166.734 272.037 175.396 242.401 190.724L123.24 149.453L146.005 290.896C132.969 318.672 125.672 349.682 125.672 382.396C125.672 501.5 222.229 598.057 341.334 598.057C460.443 598.057 556.995 501.5 556.995 382.396C556.995 349.677 549.698 318.672 536.662 290.896L559.427 149.453Z" fill="#FFE4E0"/>
<path d="M559.427 149.453L440.265 190.724C410.635 175.396 376.995 166.734 341.333 166.734C341.151 166.734 340.974 166.74 340.792 166.74V598.047C340.974 598.047 341.151 598.052 341.333 598.052C460.437 598.052 556.995 501.5 556.995 382.396C556.995 349.677 549.698 318.672 536.661 290.891L559.427 149.453Z" fill="#FFC6C2"/>
<path d="M420.823 401.182C420.823 445.083 385.234 480.672 341.333 480.672C297.432 480.672 261.844 445.083 261.844 401.182C261.844 357.281 297.432 321.693 341.333 321.693C385.234 321.693 420.823 357.281 420.823 401.182Z" fill="#FFA8AD"/>
<path d="M341.333 321.693C341.151 321.693 340.974 321.703 340.792 321.708V480.656C340.974 480.661 341.151 480.672 341.333 480.672C385.234 480.672 420.823 445.083 420.823 401.182C420.823 357.281 385.234 321.693 341.333 321.693Z" fill="#FC979E"/>
<path d="M314.594 435.87C306.349 435.87 299.662 429.182 299.662 420.932V379.505C299.662 371.255 306.349 364.568 314.594 364.568C322.844 364.568 329.531 371.255 329.531 379.505V420.932C329.531 429.182 322.844 435.87 314.594 435.87Z" fill="#FF808C"/>
<path d="M368.073 435.87C359.823 435.87 353.135 429.182 353.135 420.932V379.505C353.135 371.255 359.823 364.568 368.073 364.568C376.318 364.568 383.005 371.255 383.005 379.505V420.932C383.005 429.182 376.318 435.87 368.073 435.87Z" fill="#FF6E7C"/>
<path d="M247.688 323.141C247.688 337.505 236.042 349.151 221.677 349.151C207.307 349.151 195.662 337.505 195.662 323.141C195.662 308.771 207.307 297.125 221.677 297.125C236.042 297.125 247.688 308.771 247.688 323.141Z" fill="#636978"/>
<path d="M487.005 323.141C487.005 337.505 475.359 349.151 460.989 349.151C446.625 349.151 434.979 337.505 434.979 323.141C434.979 308.771 446.625 297.125 460.989 297.125C475.359 297.125 487.005 308.771 487.005 323.141Z" fill="#555A66"/>
</g>
<defs>
<clipPath id="clip0_2_926">
<rect width="682.667" height="682.667" fill="white"/>
</clipPath>
</defs>
</svg>
