<svg width="683" height="683" viewBox="0 0 683 683" fill="none" xmlns="http://www.w3.org/2000/svg">
<g clip-path="url(#clip0_3_1750)">
<path d="M491.951 646.294C604.546 590.699 682.005 474.739 682.005 340.67C682.005 152.523 529.482 0 341.335 0C153.188 0 0.665283 152.523 0.665283 340.67C0.665283 474.739 78.1237 590.699 190.719 646.294H491.951Z" fill="#FA42A6"/>
<path d="M679.408 298.407L534.212 153.212L393.348 265.051L288.59 160.292L152.118 294.002L255.951 397.834L200.584 452.163L217.301 468.88L253.381 459.993L410.757 481.952L491.951 646.302C604.549 590.707 682.005 474.741 682.005 340.67C682.005 326.359 681.122 312.255 679.408 298.407Z" fill="#DC2086"/>
<path d="M308.454 244.062C320.624 192.574 288.752 140.969 237.264 128.798C185.777 116.627 134.172 148.5 122.001 199.988C109.83 251.475 141.703 303.08 193.19 315.251C244.678 327.422 296.283 295.549 308.454 244.062Z" fill="#E9EDF5"/>
<path d="M233.362 265.385C257.392 255.425 268.798 227.869 258.837 203.839C248.877 179.809 221.321 168.403 197.291 178.364C173.261 188.324 161.855 215.879 171.816 239.91C181.776 263.94 209.331 275.346 233.362 265.385Z" fill="#CDD2E1"/>
<path d="M489.416 314.972C540.903 302.801 572.776 251.196 560.605 199.708C548.434 148.221 496.829 116.348 445.342 128.519C393.854 140.69 361.982 192.295 374.152 243.783C386.323 295.27 437.928 327.143 489.416 314.972Z" fill="#CDD2E1"/>
<path d="M511.125 239.965C521.085 215.934 509.68 188.379 485.649 178.419C461.619 168.458 434.064 179.864 424.103 203.894C414.143 227.924 425.548 255.479 449.579 265.44C473.609 275.401 501.164 263.995 511.125 239.965Z" fill="#AFB4C8"/>
<path d="M245.919 618.188C245.919 565.492 288.639 522.772 341.335 522.772C394.031 522.772 436.75 565.492 436.75 618.188V669.102C456.034 663.486 474.621 656.234 492.326 647.465L461.183 439.614H221.487L190.344 647.465C208.049 656.234 226.636 663.486 245.919 669.102V618.188Z" fill="#E9EDF5"/>
<path d="M436.75 618.188V669.102C456.034 663.486 474.621 656.234 492.326 647.465L461.183 439.614H341.335V522.774C394.031 522.772 436.75 565.492 436.75 618.188Z" fill="#CDD2E1"/>
<path d="M508.398 383.487C508.398 464.719 433.601 494.615 341.335 494.615C249.069 494.615 174.272 464.719 174.272 383.487C174.272 302.256 249.069 208.625 341.335 208.625C433.601 208.625 508.398 302.258 508.398 383.487Z" fill="white"/>
<path d="M341.335 208.625V494.615C433.601 494.615 508.397 464.717 508.397 383.487C508.397 302.258 433.601 208.625 341.335 208.625Z" fill="#E9EDF5"/>
<path d="M341.335 521.441C288.639 521.441 245.919 564.161 245.919 616.857V669.127C276.195 677.943 308.213 682.67 341.335 682.67C374.457 682.67 406.475 677.943 436.75 669.127V616.857C436.75 564.161 394.031 521.441 341.335 521.441Z" fill="white"/>
<path d="M341.335 521.441V682.67C374.457 682.67 406.475 677.943 436.75 669.127V616.857C436.75 564.161 394.031 521.441 341.335 521.441Z" fill="#E9EDF5"/>
<path d="M245.766 346.371C258.936 346.371 269.612 335.695 269.612 322.525C269.612 309.356 258.936 298.68 245.766 298.68C232.597 298.68 221.921 309.356 221.921 322.525C221.921 335.695 232.597 346.371 245.766 346.371Z" fill="#414952"/>
<path d="M436.903 346.371C450.073 346.371 460.749 335.695 460.749 322.525C460.749 309.356 450.073 298.68 436.903 298.68C423.734 298.68 413.058 309.356 413.058 322.525C413.058 335.695 423.734 346.371 436.903 346.371Z" fill="#23272B"/>
<path d="M378.042 365.739C381.337 345.415 367.531 326.268 347.207 322.973C326.883 319.679 307.737 333.484 304.442 353.808C301.147 374.132 314.952 393.279 335.276 396.573C355.6 399.868 374.747 386.063 378.042 365.739Z" fill="#FF6C52"/>
<path d="M341.335 322.525V397.094C361.927 397.094 378.62 380.401 378.62 359.81C378.62 339.218 361.927 322.525 341.335 322.525Z" fill="#FF432E"/>
</g>
<defs>
<clipPath id="clip0_3_1750">
<rect width="682.67" height="682.67" fill="white"/>
</clipPath>
</defs>
</svg>
