<svg width="683" height="683" viewBox="0 0 683 683" fill="none" xmlns="http://www.w3.org/2000/svg">
<g clip-path="url(#clip0_2_74)">
<path d="M682.667 341.333C682.667 529.849 529.849 682.667 341.333 682.667C152.818 682.667 0 529.849 0 341.333C0 152.818 152.818 0 341.333 0C529.849 0 682.667 152.818 682.667 341.333Z" fill="#F5D11D"/>
<path d="M682.667 341.333C682.667 340.286 682.636 339.24 682.625 338.193L420.432 76L456.287 270.052L262.234 76L262.828 489.818L166.323 571.141L270.464 675.281C293.328 680.109 317.031 682.667 341.333 682.667C529.849 682.667 682.667 529.849 682.667 341.333Z" fill="#D3B20D"/>
<path d="M175.286 639.599C224.437 667.021 281.052 682.667 341.333 682.667C401.615 682.667 458.229 667.021 507.38 639.599L462.698 383.125H219.969L175.286 639.599Z" fill="#333940"/>
<path d="M507.38 639.599L462.698 383.125H341.016V682.661C341.12 682.661 341.229 682.667 341.333 682.667C401.615 682.667 458.229 667.021 507.38 639.599Z" fill="#23272B"/>
<path d="M262.234 255.646H219.703C192.844 255.646 171.068 233.875 171.068 207.016C171.068 195.974 174.828 185.255 181.729 176.635L262.234 76V255.646Z" fill="#414952"/>
<path d="M420.432 255.646H462.964C489.823 255.646 511.599 233.875 511.599 207.016C511.599 195.974 507.839 185.255 500.938 176.635L420.432 76V255.646Z" fill="#333940"/>
<path d="M433.495 199.896H249.172C217.37 199.896 191.594 225.672 191.594 257.469V372.089C191.594 391.271 201.151 409.198 217.078 419.891L235.318 432.135C251.245 442.828 260.802 460.75 260.802 479.938C260.802 511.734 286.578 537.51 318.375 537.51H364.292C396.089 537.51 421.865 511.734 421.865 479.938C421.865 460.75 431.422 442.828 447.349 432.135L465.589 419.891C481.516 409.198 491.073 391.271 491.073 372.089V257.469C491.073 225.672 465.297 199.896 433.495 199.896Z" fill="#636978"/>
<path d="M433.495 199.896H341.016V537.51H364.292C396.089 537.51 421.865 511.734 421.865 479.932C421.865 460.75 431.422 442.823 447.349 432.13L465.589 419.885C481.516 409.193 491.073 391.271 491.073 372.083V257.469C491.073 225.672 465.297 199.896 433.495 199.896Z" fill="#555A66"/>
<path d="M516.344 571.141C407.87 641.875 274.797 641.875 166.323 571.141C171.917 559.932 177.51 548.719 183.104 537.51C281.172 601.464 401.49 601.464 499.563 537.51C505.156 548.719 510.75 559.932 516.344 571.141Z" fill="#FFD400"/>
<path d="M516.344 571.141C510.75 559.932 505.156 548.719 499.563 537.51C450.432 569.547 395.719 585.536 341.016 585.474V624.193C401.51 624.255 462.01 606.573 516.344 571.141Z" fill="#FDBA12"/>
<path d="M369.208 632.755C369.208 648.151 356.729 660.63 341.333 660.63C325.937 660.63 313.458 648.151 313.458 632.755C313.458 617.359 325.937 604.88 341.333 604.88C356.729 604.88 369.208 617.359 369.208 632.755Z" fill="#FFA300"/>
<path d="M341.333 604.88C341.229 604.88 341.125 604.896 341.016 604.896V660.615C341.125 660.62 341.229 660.63 341.333 660.63C356.729 660.63 369.208 648.151 369.208 632.755C369.208 617.359 356.729 604.88 341.333 604.88Z" fill="#FF9500"/>
<path d="M273.016 291.943H236.536L260.318 318.599C260.63 318.984 260.963 319.354 261.307 319.714H261.312C264.281 322.766 268.422 324.661 273.016 324.661C282.036 324.661 289.354 317.349 289.354 308.323V308.286C289.354 299.26 282.036 291.943 273.016 291.943Z" fill="#333940"/>
<path d="M446.13 291.943H409.651C400.63 291.943 393.312 299.26 393.312 308.286V308.323C393.312 317.349 400.63 324.661 409.651 324.661C414.781 324.661 419.354 322.297 422.349 318.599L446.13 291.943Z" fill="#23272B"/>
<path d="M350 490.078V425.318C358.74 423.172 366.49 417.833 371.599 410.172L381.141 395.859C389.088 383.938 380.542 367.974 366.213 367.974H316.453C302.125 367.974 293.578 383.938 301.526 395.859L311.068 410.172C316.177 417.833 323.927 423.172 332.667 425.318V490.078C308.422 491.734 286.781 500.245 271.271 513.021C275.13 518.51 279.922 523.286 285.422 527.135C299.099 516.573 319.088 509.891 341.333 509.891C363.578 509.891 383.568 516.573 397.245 527.135C402.745 523.286 407.536 518.505 411.396 513.021C395.885 500.245 374.245 491.734 350 490.078Z" fill="#414952"/>
<path d="M350 490.078V425.318C358.74 423.172 366.49 417.833 371.599 410.172L381.141 395.859C389.089 383.938 380.542 367.974 366.214 367.974H341.016V509.901C341.125 509.901 341.229 509.896 341.333 509.896C363.578 509.896 383.568 516.573 397.245 527.135C402.745 523.292 407.536 518.51 411.396 513.021C395.885 500.245 374.245 491.734 350 490.078Z" fill="#333940"/>
</g>
<defs>
<clipPath id="clip0_2_74">
<rect width="682.667" height="682.667" fill="white"/>
</clipPath>
</defs>
</svg>
