<svg width="683" height="683" viewBox="0 0 683 683" fill="none" xmlns="http://www.w3.org/2000/svg">
<g clip-path="url(#clip0_3_1500)">
<path d="M682.667 341.333C682.667 529.849 529.849 682.667 341.333 682.667C152.818 682.667 0 529.849 0 341.333C0 152.818 152.818 0 341.333 0C529.849 0 682.667 152.818 682.667 341.333Z" fill="#90FFE4"/>
<path d="M682.667 341.333C682.667 329.495 682.063 317.792 680.886 306.266L469.266 94.6406L276.136 469.193L110.412 541.656L230.464 664.24C265.229 676.177 302.521 682.667 341.334 682.667C529.849 682.667 682.667 529.849 682.667 341.333Z" fill="#29E5B7"/>
<path d="M342.552 605.896C288.625 605.896 244.912 562.177 244.912 508.25V195.031C244.912 141.104 288.625 97.3906 342.552 97.3906C396.479 97.3906 440.193 141.109 440.193 195.031V508.25C440.198 562.177 396.479 605.896 342.552 605.896Z" fill="#09CE67"/>
<path d="M342.552 97.3906C342.146 97.3906 341.74 97.4167 341.333 97.4219V605.865C341.74 605.87 342.146 605.896 342.552 605.896C396.479 605.896 440.193 562.177 440.193 508.25V195.031C440.198 141.109 396.479 97.3906 342.552 97.3906Z" fill="#1AAD5C"/>
<path d="M78.6875 559.328C141.297 634.682 235.708 682.667 341.333 682.667C446.958 682.667 541.37 634.682 603.979 559.328H78.6875Z" fill="#09CE67"/>
<path d="M341.333 559.328V682.667C446.958 682.667 541.37 634.682 603.979 559.328H341.333Z" fill="#1AAD5C"/>
<path d="M509.422 560.573H158.495C119.521 560.573 87.9219 528.974 87.9219 489.995C87.9219 451.015 119.521 419.417 158.495 419.417H509.422C548.401 419.417 580 451.015 580 489.995C580 528.974 548.401 560.573 509.422 560.573Z" fill="#1AAD5C"/>
<path d="M509.422 419.417H341.333V560.573H509.422C548.401 560.573 580 528.974 580 489.995C580 451.015 548.401 419.417 509.422 419.417Z" fill="#16914A"/>
<path d="M370.667 406.667L341.333 380.167L312 406.667V296H370.667V406.667Z" fill="#FE6A16"/>
<path d="M370.667 296H341.333V380.167L370.667 406.667V296Z" fill="#D84707"/>
<path d="M366.641 333.042H316.026C265.354 333.042 222.234 296.13 214.417 246.068L198.297 142.875C192.885 108.245 219.661 76.9634 254.708 76.9634H427.958C463.005 76.9634 489.781 108.245 484.37 142.875L468.25 246.068C460.432 296.13 417.312 333.042 366.641 333.042Z" fill="#15E874"/>
<path d="M427.958 76.9634H341.333V333.042H366.641C417.313 333.042 460.432 296.13 468.25 246.068L484.37 142.875C489.781 108.245 463.005 76.9634 427.958 76.9634Z" fill="#09CE67"/>
<path d="M269.573 162.948C269.573 171.354 262.755 178.172 254.344 178.172C245.937 178.172 239.12 171.354 239.12 162.948C239.12 154.536 245.937 147.719 254.344 147.719C262.755 147.719 269.573 154.536 269.573 162.948Z" fill="#555A66"/>
<path d="M443.547 162.948C443.547 171.354 436.729 178.172 428.323 178.172C419.911 178.172 413.094 171.354 413.094 162.948C413.094 154.536 419.911 147.719 428.323 147.719C436.729 147.719 443.547 154.536 443.547 162.948Z" fill="#555A66"/>
</g>
<defs>
<clipPath id="clip0_3_1500">
<rect width="682.667" height="682.667" fill="white"/>
</clipPath>
</defs>
</svg>
